<svg xmlns="http://www.w3.org/2000/svg" xmlns:xlink="http://www.w3.org/1999/xlink" width="500" zoomAndPan="magnify" viewBox="0 0 375 374.999991" height="500" preserveAspectRatio="xMidYMid meet" version="1.0"><defs><g/></defs><rect x="-37.5" width="450" fill="#ffffff" y="-37.499999" height="449.999989" fill-opacity="1"/><rect x="-37.5" width="450" fill="#ffffff" y="-37.499999" height="449.999989" fill-opacity="1"/><rect x="-37.5" width="450" fill="#0a192f" y="-37.499999" height="449.999989" fill-opacity="1"/><g fill="#cf276d" fill-opacity="1"><g transform="translate(71.469698, 218.283284)"><g><path d="M 28.285156 -98.703125 C 14.886719 -91.703125 12.355469 -73.691406 19.652344 -64.164062 C 28.882812 -52.105469 52.847656 -54.039062 57.910156 -66.394531 C 57.613281 -69.96875 55.082031 -74.285156 51.0625 -75.03125 C 43.769531 -69.820312 37.8125 -77.265625 43.320312 -82.773438 C 48.234375 -87.683594 58.804688 -84.855469 69.523438 -80.539062 C 61.1875 -52.996094 55.378906 -14.589844 44.066406 -14.589844 C 38.261719 -14.589844 37.8125 -23.820312 43.769531 -28.582031 C 43.917969 -33.644531 38.410156 -38.558594 30.816406 -39.449219 C 22.628906 -38.558594 16.972656 -33.199219 15.484375 -25.308594 C 13.398438 -13.695312 21.140625 1.191406 43.023438 1.042969 C 78.753906 0.746094 82.027344 -31.113281 94.53125 -75.476562 C 105.550781 -73.691406 121.925781 -73.542969 129.667969 -83.515625 C 135.472656 -90.960938 137.855469 -104.65625 127.730469 -114.332031 C 123.859375 -116.269531 117.90625 -115.078125 114.332031 -111.058594 C 116.269531 -102.570312 113.886719 -96.914062 104.65625 -96.320312 C 78.15625 -94.683594 53.890625 -111.949219 28.285156 -98.703125 Z M 28.285156 -98.703125 "/></g></g></g><g fill="#cf276d" fill-opacity="1"><g transform="translate(173.736558, 218.283284)"><g><path d="M 88.875 -103.761719 C 67.289062 -103.910156 50.46875 -99.59375 37.515625 -89.324219 C 23.222656 -78.007812 21.734375 -57.316406 37.070312 -52.253906 C 45.109375 -51.507812 51.65625 -56.570312 54.335938 -62.226562 C 48.980469 -79.199219 64.015625 -89.023438 87.238281 -88.28125 C 99.296875 -87.832031 110.910156 -84.113281 109.71875 -73.394531 C 108.527344 -62.078125 96.171875 -58.207031 88.28125 -58.207031 C 91.257812 -66.695312 93.9375 -72.351562 96.023438 -75.773438 C 94.832031 -79.347656 80.242188 -81.730469 74.285156 -78.605469 C 64.90625 -69.074219 60.144531 -43.769531 55.675781 -32.15625 C 35.429688 -42.726562 11.164062 -36.027344 9.824219 -18.3125 C 8.632812 -3.273438 23.371094 2.234375 40.789062 1.488281 C 54.039062 0.894531 62.226562 -3.574219 68.035156 -8.1875 C 77.265625 -1.042969 90.066406 2.085938 100.636719 1.488281 C 118.648438 0.445312 132.347656 -11.3125 133.089844 -28.433594 C 133.539062 -39.601562 126.09375 -49.871094 111.949219 -52.847656 C 123.5625 -52.550781 136.066406 -59.996094 137.855469 -72.648438 C 140.683594 -92.746094 115.523438 -103.613281 88.875 -103.761719 Z M 84.261719 -45.109375 C 97.210938 -47.488281 108.082031 -40.941406 104.359375 -27.839844 C 99.296875 -10.125 84.707031 -15.484375 76.816406 -22.332031 C 79.644531 -28.433594 80.984375 -32.601562 84.261719 -45.109375 Z M 41.089844 -22.925781 C 44.660156 -22.777344 48.085938 -21.585938 50.167969 -20.394531 C 48.53125 -17.269531 45.257812 -15.035156 41.535156 -14.144531 C 31.410156 -11.761719 30.371094 -23.371094 41.089844 -22.925781 Z M 41.089844 -22.925781 "/></g></g></g></svg>