<svg xmlns="http://www.w3.org/2000/svg" xmlns:xlink="http://www.w3.org/1999/xlink" width="500" zoomAndPan="magnify" viewBox="0 0 375 374.999991" height="500" preserveAspectRatio="xMidYMid meet" version="1.0"><defs><g/></defs><rect x="-37.5" width="450" fill="#ffffff" y="-37.499999" height="449.999989" fill-opacity="1"/><rect x="-37.5" width="450" fill="#ffffff" y="-37.499999" height="449.999989" fill-opacity="1"/><rect x="-37.5" width="450" fill="#ffffff" y="-37.499999" height="449.999989" fill-opacity="1"/><g fill="#cf276d" fill-opacity="1"><g transform="translate(156.533197, 172.499989)"><g><path d="M 7.21875 -25.191406 C 3.800781 -23.40625 3.152344 -18.808594 5.015625 -16.375 C 7.371094 -13.296875 13.488281 -13.792969 14.78125 -16.945312 C 14.703125 -17.859375 14.058594 -18.960938 13.03125 -19.148438 C 11.171875 -17.820312 9.652344 -19.71875 11.054688 -21.125 C 12.308594 -22.378906 15.007812 -21.65625 17.742188 -20.554688 C 15.617188 -13.527344 14.132812 -3.722656 11.246094 -3.722656 C 9.765625 -3.722656 9.652344 -6.078125 11.171875 -7.296875 C 11.207031 -8.585938 9.800781 -9.839844 7.863281 -10.070312 C 5.773438 -9.839844 4.332031 -8.472656 3.953125 -6.460938 C 3.417969 -3.496094 5.394531 0.304688 10.980469 0.265625 C 20.097656 0.191406 20.933594 -7.941406 24.125 -19.261719 C 26.9375 -18.808594 31.117188 -18.769531 33.09375 -21.316406 C 34.574219 -23.214844 35.183594 -26.710938 32.601562 -29.179688 C 31.613281 -29.675781 30.09375 -29.371094 29.179688 -28.34375 C 29.675781 -26.179688 29.066406 -24.734375 26.710938 -24.582031 C 19.949219 -24.164062 13.753906 -28.570312 7.21875 -25.191406 Z M 7.21875 -25.191406 "/></g></g></g><g fill="#cf276d" fill-opacity="1"><g transform="translate(182.633862, 172.499989)"><g><path d="M 22.683594 -26.484375 C 17.171875 -26.519531 12.878906 -25.417969 9.574219 -22.796875 C 5.925781 -19.910156 5.546875 -14.628906 9.460938 -13.335938 C 11.511719 -13.144531 13.183594 -14.4375 13.867188 -15.882812 C 12.5 -20.214844 16.335938 -22.722656 22.265625 -22.53125 C 25.34375 -22.417969 28.304688 -21.46875 28.003906 -18.730469 C 27.699219 -15.84375 24.542969 -14.855469 22.53125 -14.855469 C 23.289062 -17.023438 23.976562 -18.464844 24.507812 -19.339844 C 24.203125 -20.25 20.480469 -20.859375 18.960938 -20.0625 C 16.566406 -17.628906 15.351562 -11.171875 14.210938 -8.207031 C 9.042969 -10.90625 2.851562 -9.195312 2.507812 -4.671875 C 2.203125 -0.835938 5.964844 0.570312 10.410156 0.378906 C 13.792969 0.226562 15.882812 -0.910156 17.363281 -2.089844 C 19.71875 -0.265625 22.988281 0.53125 25.683594 0.378906 C 30.28125 0.113281 33.777344 -2.886719 33.96875 -7.257812 C 34.082031 -10.105469 32.183594 -12.726562 28.570312 -13.488281 C 31.535156 -13.414062 34.726562 -15.3125 35.183594 -18.542969 C 35.90625 -23.671875 29.484375 -26.445312 22.683594 -26.484375 Z M 21.503906 -11.511719 C 24.8125 -12.121094 27.585938 -10.449219 26.632812 -7.105469 C 25.34375 -2.582031 21.621094 -3.953125 19.605469 -5.699219 C 20.328125 -7.257812 20.667969 -8.320312 21.503906 -11.511719 Z M 10.488281 -5.851562 C 11.398438 -5.8125 12.273438 -5.507812 12.804688 -5.207031 C 12.386719 -4.40625 11.550781 -3.835938 10.601562 -3.609375 C 8.015625 -3 7.75 -5.964844 10.488281 -5.851562 Z M 10.488281 -5.851562 "/></g></g></g></svg>